<svg width="20" height="20" viewBox="0 0 20 20" fill="none" xmlns="http://www.w3.org/2000/svg">
<path d="M18.2202 18.9999L13.2202 13.9999M13.2202 13.9999L9.26421 17.9559C9.1486 18.0714 9.00645 18.1568 8.8502 18.2046C8.69395 18.2524 8.52836 18.2613 8.36792 18.2303C8.20748 18.1993 8.05707 18.1295 7.92986 18.0269C7.80266 17.9243 7.70252 17.7922 7.63822 17.6419L5.38321 12.3809C5.3315 12.2601 5.25649 12.1507 5.16246 12.0589C5.06843 11.9671 4.95723 11.8947 4.83521 11.8459L1.62822 10.5629C1.47466 10.5015 1.33874 10.4029 1.23265 10.276C1.12655 10.1491 1.05358 9.99786 1.02029 9.83584C0.986993 9.67383 0.994406 9.50608 1.04186 9.34763C1.08932 9.18918 1.17534 9.04498 1.29222 8.92794L8.14822 2.07194C8.26526 1.95506 8.40946 1.86904 8.56791 1.82159C8.72636 1.77413 8.8941 1.76672 9.05612 1.80001C9.21814 1.83331 9.36937 1.90627 9.49626 2.01237C9.62316 2.11846 9.72175 2.25438 9.78321 2.40794L11.0662 5.61494C11.115 5.73695 11.1874 5.84815 11.2792 5.94218C11.371 6.03621 11.4804 6.11123 11.6012 6.16294L16.8622 8.41794C17.0124 8.48224 17.1446 8.58238 17.2472 8.70959C17.3497 8.8368 17.4196 8.9872 17.4505 9.14764C17.4815 9.30808 17.4727 9.47367 17.4249 9.62992C17.3771 9.78617 17.2917 9.92832 17.1762 10.0439L13.2202 13.9999Z" stroke="#2C6E1A" stroke-width="2" stroke-linecap="round" stroke-linejoin="round"/>
</svg>
