<svg width="24" height="24" viewBox="0 0 24 24" fill="none" xmlns="http://www.w3.org/2000/svg">
<path d="M4 19.9999L9 14.9999M9 14.9999L12.956 18.9559C13.0716 19.0714 13.2138 19.1568 13.37 19.2046C13.5263 19.2524 13.6919 19.2613 13.8523 19.2303C14.0127 19.1993 14.1631 19.1295 14.2903 19.0269C14.4176 18.9243 14.5177 18.7922 14.582 18.6419L16.837 13.3809C16.8887 13.2601 16.9637 13.1507 17.0578 13.0589C17.1518 12.9671 17.263 12.8947 17.385 12.8459L20.592 11.5629C20.7456 11.5015 20.8815 11.4029 20.9876 11.276C21.0937 11.1491 21.1666 10.9979 21.1999 10.8358C21.2332 10.6738 21.2258 10.5061 21.1784 10.3476C21.1309 10.1892 21.0449 10.045 20.928 9.92794L14.072 3.07194C13.955 2.95506 13.8108 2.86904 13.6523 2.82159C13.4939 2.77413 13.3261 2.76672 13.1641 2.80001C13.0021 2.83331 12.8508 2.90627 12.724 3.01237C12.5971 3.11846 12.4985 3.25438 12.437 3.40794L11.154 6.61494C11.1052 6.73695 11.0328 6.84815 10.941 6.94218C10.8492 7.03621 10.7398 7.11123 10.619 7.16294L5.358 9.41794C5.20778 9.48224 5.07561 9.58238 4.97304 9.70959C4.87048 9.8368 4.80065 9.9872 4.76967 10.1476C4.73868 10.3081 4.74749 10.4737 4.79531 10.6299C4.84314 10.7862 4.92852 10.9283 5.044 11.0439L9 14.9999Z" stroke="#2C6E1A" stroke-width="2" stroke-linecap="round" stroke-linejoin="round"/>
</svg>
