<svg width="29" height="29" viewBox="0 0 29 29" fill="none" xmlns="http://www.w3.org/2000/svg">
<circle cx="14.5" cy="14.5" r="13.5" fill="black" fill-opacity="0.7" stroke="#69D94A" stroke-width="2"/>
<path d="M8.3335 20.6667L12.5002 16.5M12.5002 16.5L15.7968 19.7967C15.8932 19.8929 16.0116 19.9641 16.1418 20.0039C16.272 20.0438 16.41 20.0511 16.5437 20.0253C16.6774 19.9995 16.8028 19.9413 16.9088 19.8558C17.0148 19.7703 17.0982 19.6602 17.1518 19.535L19.031 15.1508C19.0741 15.0502 19.1366 14.959 19.215 14.8825C19.2933 14.806 19.386 14.7457 19.4877 14.705L22.1602 13.6358C22.2881 13.5846 22.4014 13.5025 22.4898 13.3967C22.5782 13.291 22.639 13.1649 22.6668 13.0299C22.6945 12.8949 22.6883 12.7551 22.6488 12.6231C22.6092 12.491 22.5376 12.3709 22.4402 12.2733L16.7268 6.56001C16.6293 6.46261 16.5091 6.39093 16.3771 6.35138C16.245 6.31183 16.1053 6.30566 15.9702 6.3334C15.8352 6.36115 15.7092 6.42195 15.6035 6.51037C15.4977 6.59878 15.4156 6.71204 15.3643 6.84001L14.2952 9.51251C14.2545 9.61419 14.1942 9.70685 14.1177 9.78521C14.0412 9.86357 13.95 9.92608 13.8493 9.96917L9.46516 11.8483C9.33998 11.9019 9.22983 11.9854 9.14436 12.0914C9.05889 12.1974 9.0007 12.3227 8.97488 12.4564C8.94907 12.5901 8.9564 12.7281 8.99626 12.8583C9.03611 12.9885 9.10727 13.107 9.2035 13.2033L12.5002 16.5Z" stroke="#69D94A" stroke-width="1.66667" stroke-linecap="round" stroke-linejoin="round"/>
</svg>
